# Blender v2.83.1 OBJ File: 'vmt_rendermodel.blend'
# www.blender.org
mtllib vmt_rendermodel.mtl
o 立方体
v 0.050000 -0.050000 -0.050000
v -0.050000 -0.050000 -0.050000
v 0.040155 0.050000 -0.040155
v 0.050000 0.040155 -0.050000
v -0.040155 0.050000 -0.040155
v -0.050000 0.040155 -0.050000
v 0.042815 -0.042815 0.050000
v 0.050000 -0.050000 0.042437
v -0.042815 -0.042815 0.050000
v -0.050000 -0.050000 0.042437
v 0.040155 0.050000 0.032541
v 0.036436 0.044920 0.045235
v 0.036121 0.045235 0.044920
v 0.042815 0.032971 0.050000
v 0.050000 0.040155 0.042407
v -0.040155 0.050000 0.032541
v -0.036436 0.044920 0.045235
v -0.050000 0.040155 0.042407
v -0.042815 0.032971 0.050000
v -0.036121 0.045235 0.044920
vt 0.692936 0.884161
vt 0.692761 0.810363
vt 0.739746 0.763047
vt 0.739968 0.931556
vt 0.739506 0.282553
vt 0.739723 0.715743
vt 0.262223 0.715874
vt 0.262006 0.282683
vt 0.814678 0.282432
vt 0.814750 0.715623
vt 0.012486 0.715994
vt 0.012126 0.282803
vt 0.309279 0.810468
vt 0.309453 0.884266
vt 0.262468 0.931686
vt 0.262246 0.763177
vt 0.327242 0.945258
vt 0.675208 0.945163
vt 0.673700 0.943647
vt 0.328749 0.943741
vt 0.951302 0.316823
vt 0.951483 0.680971
vt 0.885295 0.681083
vt 0.885113 0.316934
vt 0.296793 0.968159
vt 0.274565 0.956005
vt 0.850989 0.681092
vt 0.826748 0.715620
vt 0.739284 0.060142
vt 0.261785 0.060272
vt 0.296073 0.023925
vt 0.704960 0.023814
vt 0.919532 0.715501
vt 0.917280 0.715595
vt 0.985591 0.282292
vt 0.985807 0.715483
vn -0.7071 0.7071 0.0000
vn -0.0000 0.0000 -1.0000
vn -1.0000 0.0000 0.0000
vn 1.0000 0.0000 -0.0000
vn 0.7071 0.7071 0.0000
vn 0.0000 1.0000 0.0000
vn 0.0000 0.7071 -0.7071
vn 0.0000 -0.7071 -0.7071
vn 0.0000 0.0000 1.0000
vn 0.3303 0.5094 0.7946
vn -0.3303 0.5094 0.7946
vn 0.0000 -0.7250 0.6888
vn 0.3779 0.8161 0.4373
vn 0.0000 0.9284 0.3715
vn -0.3778 0.8161 0.4373
vn 0.0000 0.3827 0.9239
vn 0.7257 0.0001 0.6880
vn -0.7257 0.0001 0.6880
vn 0.0000 -1.0000 0.0000
usemtl マテリアル
s off
f 16/1/1 5/2/1 6/3/1 18/4/1
f 2/5/2 6/6/2 4/7/2 1/8/2
f 10/9/3 18/10/3 6/6/3 2/5/3
f 1/8/4 4/7/4 15/11/4 8/12/4
f 3/13/5 11/14/5 15/15/5 4/16/5
f 5/2/6 16/1/6 11/14/6 3/13/6
f 5/2/7 3/13/7 4/7/7 6/6/7
f 12/17/8 17/18/8 20/19/8 13/20/8
f 7/21/9 14/22/9 19/23/9 9/24/9
f 13/20/10 14/25/10 15/26/10
f 18/10/11 19/27/11 20/28/11
f 10/29/12 8/30/12 7/31/12 9/32/12
f 15/15/13 11/14/13 12/17/13 13/20/13
f 11/14/14 16/1/14 17/18/14 12/17/14
f 16/1/15 18/4/15 20/19/15 17/18/15
f 19/23/16 14/22/16 13/33/16 20/34/16
f 14/22/17 7/21/17 8/35/17 15/36/17
f 18/10/18 10/9/18 9/24/18 19/23/18
f 10/29/19 2/5/19 1/8/19 8/30/19
